Coordinates
version=1
nRows=12
nColumns=38
inDegrees=yes

Units are S.I. units (second, meters, Newtons, ...)
Angles are in degrees.

endheader
time	pelvis_tilt	pelvis_list	pelvis_rotation	pelvis_tx	pelvis_ty	pelvis_tz	hip_flexion_r	hip_adduction_r	hip_rotation_r	knee_angle_r	ankle_angle_r	subtalar_angle_r	mtp_angle_r	hip_flexion_l	hip_adduction_l	hip_rotation_l	knee_angle_l	ankle_angle_l	subtalar_angle_l	mtp_angle_l	lumbar_extension	lumbar_bending	lumbar_rotation	arm_flex_r	arm_add_r	arm_rot_r	elbow_flex_r	pro_sup_r	wrist_flex_r	wrist_dev_r	arm_flex_l	arm_add_l	arm_rot_l	elbow_flex_l	pro_sup_l	wrist_flex_l	wrist_dev_l
      2.12000000	     -0.11479017	      2.17901571	     -1.68072102	      0.95089003	      0.97986466	     -0.26143776	     15.49272605	     -5.66088806	     -7.92372493	    -67.77842508	     -4.70075571	    -16.27577934	      0.00000000	     12.14709542	      6.93075460	     -1.46176797	    -17.53002345	      4.42337847	    -10.70711048	      0.00000000	     -9.74050673	     -2.67869423	     -0.00385830	      0.16040900	    -10.96001348	     29.23819541	     44.56459791	     44.31095315	      0.00000000	      0.00000000	      1.02716566	     -8.86199508	     40.06486419	     27.29310664	     44.31095315	      0.00000000	      0.00000000
      2.13000000	     -0.04376278	      1.71681904	     -1.25577140	      0.96342324	      0.98172924	     -0.26242542	     16.82298810	     -5.20174201	     -8.20444717	    -67.42499067	     -3.44719476	    -15.55249993	      0.00000000	     10.82436262	      6.59915175	     -0.56523412	    -16.85761143	      5.01613495	    -10.51607311	      0.00000000	     -9.85399515	     -1.99034074	     -0.61878044	     -0.28530677	    -10.86225406	     29.36622344	     43.76831820	     44.32166074	      0.00000000	      0.00000000	      2.07530703	     -8.95183879	     40.16782119	     27.81017959	     44.32166074	      0.00000000	      0.00000000
      2.14000000	     -0.14139187	      1.38420249	     -0.82562560	      0.97587671	      0.98320601	     -0.26335473	     18.30669611	     -4.71361959	     -8.18093889	    -66.76262912	     -3.04911443	    -15.13534812	      0.00000000	      9.83680839	      6.35982618	     -0.09934762	    -16.34108171	      5.38368423	    -10.32281022	      0.00000000	     -9.73031174	     -1.46891676	     -1.32447669	     -0.88076054	    -10.79197261	     29.47014007	     43.38600535	     44.32501726	      0.00000000	      0.00000000	      3.10247424	     -9.02447196	     40.14352541	     28.15580461	     44.32501726	      0.00000000	      0.00000000
      2.15000000	     -0.22406025	      1.08186624	     -0.26932289	      0.98836499	      0.98436311	     -0.26460359	     19.56503091	     -4.42287717	     -8.66279723	    -65.70785524	     -2.10272376	    -15.00270636	      0.00000000	      8.54960492	      6.16840747	      0.45809568	    -15.24906600	      5.84100757	    -10.09401704	      0.00000000	     -9.63544711	     -0.93752667	     -1.96358489	     -1.55516789	    -10.75301409	     29.57118644	     42.87872067	     44.32885073	      0.00000000	      0.00000000	      4.16009705	     -9.10360471	     40.14346279	     28.60773553	     44.32885073	      0.00000000	      0.00000000
      2.16000000	     -0.18503412	      0.82549946	      0.27207506	      1.00106674	      0.98540499	     -0.26578404	     20.61172356	     -4.24335276	     -9.12246195	    -64.37844080	     -1.39114671	    -14.64114796	      0.00000000	      7.18158008	      6.09007270	      1.60982138	    -14.29848377	      5.88438882	    -11.00236468	      0.00000000	     -9.64504387	     -0.49669052	     -2.68756186	     -1.56818270	    -10.38889567	     30.51244443	     40.18965824	     44.37581645	      0.00000000	      0.00000000	      4.83093942	     -9.76178092	     40.58630851	     30.82750878	     44.37581645	      0.00000000	      0.00000000
      2.17000000	     -0.17490018	      0.60321195	      0.82308586	      1.01373780	      0.98604223	     -0.26686108	     21.60716715	     -4.14191307	     -9.71774673	    -62.76613769	     -0.79267600	    -14.51326004	      0.00000000	      5.98667554	      5.91103654	      2.10305898	    -13.63375586	      6.45557064	    -10.67984642	      0.00000000	     -9.62272671	     -0.10324289	     -3.39277929	     -2.22401379	    -10.38637398	     30.81857629	     39.75125577	     44.38525176	      0.00000000	      0.00000000	      5.84380630	     -9.89108902	     40.44797894	     31.34672175	     44.38525176	      0.00000000	      0.00000000
      2.18000000	     -0.34934957	      0.45069718	      1.37713198	      1.02620330	      0.98606480	     -0.26786429	     22.73672343	     -4.10027154	    -10.26558907	    -60.91531474	     -0.34697037	    -14.60565189	      0.00000000	      5.05660059	      5.79202215	      2.59783807	    -13.06947523	      6.77592882	    -10.60391886	      0.00000000	     -9.39861539	      0.18251035	     -4.10580813	     -2.91243004	    -10.34257531	     30.95541156	     39.45118319	     44.38839552	      0.00000000	      0.00000000	      6.86790903	    -10.06163260	     40.33597073	     31.73943745	     44.38839552	      0.00000000	      0.00000000
      2.19000000	     -0.26163373	      0.24138114	      1.94839342	      1.03878175	      0.98619516	     -0.26881738	     23.47463918	     -4.03442300	    -10.90388350	    -58.69820609	     -0.25312991	    -14.72069225	      0.00000000	      3.75050388	      5.63710607	      3.45791481	    -12.28028327	      7.35892402	    -10.91177279	      0.00000000	     -9.48458036	      0.54663063	     -4.83657305	     -3.28517767	    -10.17149427	     31.32765094	     38.26733069	     44.40782979	      0.00000000	      0.00000000	      7.62920299	    -10.62332376	     40.30126423	     33.52705729	     44.40782979	      0.00000000	      0.00000000
      2.20000000	     -0.43379804	      0.29721597	      2.44928626	      1.05120774	      0.98546426	     -0.26968390	     24.39198783	     -4.20899095	    -11.43537795	    -56.32790807	      0.11387418	    -14.98739602	      0.00000000	      2.85048245	      5.69961415	      3.84295875	    -11.75137441	      7.92321957	    -10.69621369	      0.00000000	     -9.27848180	      0.57589504	     -5.51652661	     -3.98966461	    -10.11134085	     31.45169425	     38.00804517	     44.41017145	      0.00000000	      0.00000000	      8.66742739	    -10.82272362	     40.14291633	     33.91461695	     44.41017145	      0.00000000	      0.00000000
      2.21000000	     -0.27808242	      0.23034060	      2.90515641	      1.06389608	      0.98504554	     -0.27029121	     24.85808966	     -4.25428432	    -12.08584535	    -53.64846244	      0.15897783	    -15.14114950	      0.00000000	      1.51027681	      5.61441838	      4.86447200	    -11.11600603	      8.34976675	    -11.10279375	      0.00000000	     -9.46135637	      0.71791521	     -6.12401430	     -4.12205148	     -9.81375243	     32.58769253	     35.94574764	     44.46030372	      0.00000000	      0.00000000	      8.77487042	    -11.88308587	     38.91838241	     38.12568952	     44.46030372	      0.00000000	      0.00000000
      2.22000000	     -0.36471505	      0.31530233	      3.29240182	      1.07649337	      0.98381119	     -0.27077753	     25.50247109	     -4.36429192	    -12.52399202	    -50.77677858	      0.40033325	    -15.21762925	      0.00000000	      0.57272687	      5.65781100	      5.20439909	    -10.72481855	      8.99493830	    -10.93896956	      0.00000000	     -9.36981461	      0.66825854	     -6.69308508	     -4.79336064	     -9.74808960	     32.71730533	     35.76795547	     44.46257974	      0.00000000	      0.00000000	      9.80538804	    -12.09378666	     38.64464850	     38.43544771	     44.46257974	      0.00000000	      0.00000000
      2.23000000	     -0.09819118	      0.21163824	      3.64894467	      1.08933863	      0.98293349	     -0.27111338	     25.82978157	     -4.46888019	    -13.77407067	    -47.83160675	     -0.29087261	    -15.41628985	      0.00000000	     -0.72639647	      5.47181134	      5.67326151	    -10.40060457	      9.80190502	    -10.90691195	      0.00000000	     -9.68724817	      0.86238194	     -7.07948925	     -5.40674567	     -9.68478698	     32.89282043	     35.37121331	     44.46923082	      0.00000000	      0.00000000	     10.75525723	    -12.30728093	     38.26698143	     39.39874859	     44.46923082	      0.00000000	      0.00000000
